# xmcd CD database file
#
# Track frame offsets:
#	150
#	13990
#	33345
#	47280
#	67030
#	87990
#	104745
#	122865
#	135192
#	150885
#	175277
#	192627
#	210460
#
# Disc length: 3053 seconds
#
# Revision: 0
# Processed by: cddbd v1.5.1PL0 Copyright (c) Steve Scherf et al.
# Submitted via: cdripper 1.0.7
#
DISCID=ae0beb0d
DTITLE=Various Artist - Blues Across America: The Chicago Scene
DYEAR=1998
DGENRE=Blues
TTITLE0=Robert Plunkett - Sweet Tooth
TTITLE1=Robert Plunkett - Stranded in St. Louis
TTITLE2=Robert Plunkett - You're My Sweet Baby
TTITLE3=Robert Plunkett - Crack Smokin' Woman
TTITLE4=Emery Williams Jr. - The Whammy
TTITLE5=Emery Williams Jr. - Reckless Eyeballin'
TTITLE6=Emery Williams Jr. - I'm Guilty
TTITLE7=Emery Williams Jr. - You Did Me Wrong
TTITLE8=Emery Williams Jr. - Your Turn to Cry
TTITLE9=Little Arthur Duncan - Pretty Girls Everywhere
TTITLE10=Little Arthur Duncan - Ruthie Mae
TTITLE11=Little Arthur Duncan - The Midnight Train
TTITLE12=Little Arthur Duncan - Mama Talk to Your Daughter
EXTD=YEAR: 1998
EXTT0=
EXTT1=
EXTT2=
EXTT3=
EXTT4=
EXTT5=
EXTT6=
EXTT7=
EXTT8=
EXTT9=
EXTT10=
EXTT11=
EXTT12=
PLAYORDER=
